<?xml version="1.0" encoding="UTF-8" standalone="no"?>
<svg xmlns="http://www.w3.org/2000/svg" version="1.1" xmlns:xlink="http://www.w3.org/1999/xlink" xmlns:svgjs="http://svgjs.dev/svgjs" width="1500" height="1500" viewBox="0 0 1500 1500"><g transform="matrix(1,0,0,1,-0.21332335329316265,-0.21332335329350371)"><svg viewBox="0 0 334 334" data-background-color="#293040" preserveAspectRatio="xMidYMid meet" height="1500" width="1500" xmlns="http://www.w3.org/2000/svg" xmlns:xlink="http://www.w3.org/1999/xlink"><g id="tight-bounds" transform="matrix(1,0,0,1,0.04749999999998522,0.04750000000001364)"><svg viewBox="0 0 333.90454557049503 333.90454557049503" height="333.90454557049503" width="333.90454557049503"><g><svg></svg></g><g><svg viewBox="0 0 333.90454557049503 333.90454557049503" height="333.90454557049503" width="333.90454557049503"><g><path d="M0 166.952c0-92.205 74.747-166.952 166.952-166.952 92.205 0 166.952 74.747 166.953 166.952 0 92.205-74.747 166.952-166.953 166.953-92.205 0-166.952-74.747-166.952-166.953zM166.952 327.306c88.561 0 160.354-71.793 160.354-160.354 0-88.561-71.793-160.354-160.354-160.354-88.561 0-160.354 71.793-160.354 160.354 0 88.561 71.793 160.354 160.354 160.354z" data-fill-palette-color="tertiary" fill="#d5b263" stroke="transparent"></path><ellipse rx="160.27418187383762" ry="160.27418187383762" cx="166.95227278524752" cy="166.95227278524752" fill="#d5b263" stroke="transparent" stroke-width="0" fill-opacity="1" data-fill-palette-color="tertiary"></ellipse></g><g transform="matrix(1,0,0,1,119.53248461717044,71.17305217166896)"><svg viewBox="0 0 94.83957633615414 191.55844122715712" height="191.55844122715712" width="94.83957633615414"><g><svg viewBox="0 0 94.83957633615414 191.55844122715712" height="191.55844122715712" width="94.83957633615414"><g><svg viewBox="0 0 213.1584412271571 430.5407121511884" height="191.55844122715712" width="94.83957633615414"><g transform="matrix(1,0,0,1,0,266.0914325461699)"><svg viewBox="0 0 213.1584412271571 164.4492796050185" height="164.4492796050185" width="213.1584412271571"><g id="textblocktransform"><svg viewBox="0 0 213.1584412271571 164.4492796050185" height="164.4492796050185" width="213.1584412271571" id="textblock"><g><svg viewBox="0 0 213.1584412271571 164.4492796050185" height="164.4492796050185" width="213.1584412271571"><g transform="matrix(1,0,0,1,0,0)"><svg width="213.1584412271571" viewBox="-2.1 -31.2 47.7 36.8" height="164.4492796050185" data-palette-color="#293040"><path d="M28.6-13.5L28.6-13.5Q26.1-13.5 23.95-13.9L23.95-13.9Q24.65-11.7 26.9-3.95L26.9-3.95Q27.6-1.7 29.1 0.6L29.1 0.6Q31.15 3.55 32.9 3.55L32.9 3.55Q35 3.55 36.4-0.7L36.4-0.7Q36.65-1.7 36.93-1.7 37.2-1.7 37.33-1.13 37.45-0.55 37.45-0.35L37.45-0.35Q37.45 0.9 36.05 2.85L36.05 2.85Q34.2 5.6 32 5.6 29.8 5.6 27.95 3.4 26.1 1.2 24.33-4.63 22.55-10.45 22.55-12.05L22.55-12.05Q22.55-12.3 22.6-12.45L22.6-12.45Q16.6-4.5 14-1.95L14-1.95Q8.2 3.7 2.15 3.7L2.15 3.7Q-2.1 3.7-2.1 0.5L-2.1 0.5Q-2.1-1.1-1.1-3.03-0.1-4.95 1.35-6.4 2.8-7.85 3.9-7.85L3.9-7.85Q4.1-7.85 4.1-7.75L4.1-7.75Q4.1-7.5 2.85-6.5 1.6-5.5 0.45-3.68-0.7-1.85-0.7-0.35L-0.7-0.35Q-0.7 2.3 2.85 2.3L2.85 2.3Q9.5 2.3 21.15-13.3L21.15-13.3Q21.8-14.15 22.25-14.5L22.25-14.5 21.45-14.8Q20.8-14.55 20.4-14.55L20.4-14.55Q19.35-14.55 19.35-15.4L19.35-15.4Q19.35-16.55 20.9-16.9L20.9-16.9Q21.1-16.95 21.25-16.95L21.25-16.95Q22.15-16.95 23.35-16.05L23.35-16.05Q27.75-20.95 27.85-21.05L27.85-21.05Q31.5-24.8 32.77-24.8 34.05-24.8 34.05-23.7L34.05-23.7Q34.05-23.2 33.83-22.75 33.6-22.3 33.3-22.3L33.3-22.3Q33-22.2 33-22.6L33-22.6Q33-22.8 33.3-23.2L33.3-23.2Q33.35-23.9 32.85-23.9L32.85-23.9Q31.25-23.9 25.1-15.4L25.1-15.4Q26.6-15.3 27.6-15.3L27.6-15.3Q39.2-15.3 42.1-21.3L42.1-21.3Q42.7-22.6 42.7-23.7L42.7-23.7Q42.7-25.9 40.7-27.5L40.7-27.5Q37.5-30.1 30.3-30.1 23.1-30.1 15.6-26.45L15.6-26.45Q6.5-22 6.5-16L6.5-16Q6.5-14.05 8.95-14.05 11.4-14.05 14.15-15.85 16.9-17.65 17.85-19.4L17.85-19.4Q18.2-20.05 18.53-20.05 18.85-20.05 18.7-19.65L18.7-19.65Q17.75-16.85 14.48-14.88 11.2-12.9 7.65-12.9 4.1-12.9 4.1-15.15L4.1-15.15Q4.1-15.3 4.1-15.5L4.1-15.5Q4.85-22.05 12.13-26.63 19.4-31.2 29.65-31.2L29.65-31.2Q39.2-31.2 43.2-27.9L43.2-27.9Q45.6-25.9 45.6-23.2L45.6-23.2Q45.6-22.05 45.05-20.7L45.05-20.7Q43.5-17.05 38.7-15.28 33.9-13.5 28.6-13.5Z" opacity="1" transform="matrix(1,0,0,1,0,0)" fill="#293040" class="wordmark-text-0" data-fill-palette-color="quaternary" id="text-0"></path></svg></g></svg></g></svg></g></svg></g><g transform="matrix(1,0,0,1,70.7544017490795,0)"><svg viewBox="0 0 71.64963772899812 227.2689044141356" height="227.2689044141356" width="71.64963772899812"><g><svg xmlns="http://www.w3.org/2000/svg" xmlns:xlink="http://www.w3.org/1999/xlink" version="1.1" x="0" y="0" viewBox="35.81520772104569 5.000507062607346 28.372775728129533 89.99696103571833" enable-background="new 0 0 100 100" xml:space="preserve" height="227.2689044141356" width="71.64963772899812" class="icon-icon-0" data-fill-palette-color="quaternary" id="icon-0"><path d="M63.445 58.552C63.098 57.319 60.905 48.856 60.905 48.856S62.281 48.922 62.37 47.06 62.201 42.102 61.381 40.602C60.56 39.102 58.632 35.278 58.632 35.278S55.721 33.354 55.143 33.003C54.565 32.65 56.451 32.795 56.977 32.008 57.499 31.221 57.809 29.289 57.524 28.465 57.238 27.639 56.211 25.373 55.375 24.738 54.54 24.103 53.086 23.98 52.099 24.257 51.112 24.535 51.136 24.901 50.908 25.012S49.323 25.164 49.098 25.354C48.874 25.543 48.998 25.915 48.925 26.134 48.854 26.353 48.457 26.301 48.338 26.552 48.15 26.959 48.08 26.864 47.988 27.103 47.895 27.343 48.21 28.128 48.513 28.549 48.818 28.968 48.561 29.255 48.561 29.255S46.901 27.782 46.414 27.759C45.93 27.736 45.8 26.189 45.405 25.967S44.707 25.284 44.494 24.666C44.279 24.047 43.698 23.492 43.713 23.168S44.088 22.117 44.088 22.117C43.896 21.594 42.566 20.015 42.804 19 43.041 17.983 43.631 16.93 43.182 16.152 42.733 15.372 40.871 13.58 40.871 13.58S40.609 12.858 40.749 11.6C40.891 10.309 41.154 9.596 41.104 9.238 41.025 8.668 41.14 7.941 40.658 8.215 40.56 8.27 40.535 9.559 40.286 9.388 39.952 9.158 39.892 8.353 39.682 7.639 39.473 6.926 39.695 6.465 39.6 6.163 39.508 5.861 38.877 4.884 38.708 5.012 38.542 5.138 38.445 6.54 38.4 6.916 38.355 7.293 38.3 8.48 38.316 8.725 38.331 8.969 38.957 10.594 38.961 11.081 38.961 11.081 38.98 12.407 38.867 13.051 38.756 13.695 38.536 14.333 38.536 14.333S36.943 15.393 36.868 15.822 36.801 17.252 36.556 17.863C36.31 18.474 35.658 22.337 35.878 23.186 35.926 23.368 35.974 23.57 36.023 23.783 36.009 24.137 36.054 24.248 36.126 24.22 36.091 24.072 36.058 23.926 36.023 23.783 36.068 22.681 36.114 19.681 36.474 19.536 36.474 19.536 36.611 21.692 36.927 21.788 37.242 21.884 37.703 22.474 37.872 22.766 38.039 23.058 37.79 24.263 37.223 23.708 36.656 23.154 36.8 22.674 36.656 23.154 36.557 23.48 36.281 24.16 36.126 24.218 36.287 24.891 36.477 25.599 36.731 26.065 37.131 26.787 38.904 29.847 39.443 30.468 39.981 31.088 42.747 33.789 42.795 34.494 42.843 35.2 42.792 36.821 42.658 37.354 42.525 37.889 40.367 43.128 39.992 44.205 39.616 45.282 36.416 51.987 36.078 53.105 35.741 54.225 35.71 54.874 36.091 55.418 36.47 55.964 38 57.051 38.057 57.581 38.112 58.111 38.58 59.351 39.486 59.921 40.393 60.492 41.896 61.294 42 61.664 42.104 62.033 43.514 66.523 43.727 67.993 43.941 69.464 44.112 75.233 44.084 75.8L44.043 76.651 43.605 77.36S43.759 79.233 43.893 79.807C44.03 80.382 44.44 80.281 44.419 80.726 44.415 80.789 44.418 80.855 44.423 80.92 44.611 80.81 45.201 80.683 45.241 80.48 45.295 80.2 44.447 80.119 44.216 79.863 43.984 79.609 44.049 79.086 43.884 78.306 43.718 77.527 43.932 77.294 43.932 77.294S44.657 76.558 45.11 76.428 46.855 75.792 46.9 77.192C46.942 78.593 47.645 78.526 48.414 79.455 49.182 80.386 47.1 80.65 46.65 80.71 46.202 80.771 45.222 81.737 44.777 81.716 44.936 81.765 45.222 81.737 45.222 81.737S45.696 83.275 45.942 84.248C45.973 83.599 47.365 82.96 46.575 83.142 45.989 83.276 45.59 83.378 45.696 82.857 45.802 82.334 46.879 82.223 46.05 81.981 45.222 81.738 45.758 81.561 45.758 81.561S46.727 81.648 47.305 81.432 46.975 82.389 46.76 82.663C46.543 82.936 48.452 81.365 48.484 81.892 48.515 82.421 49.605 82.539 49.187 82.811S46.54 83.87 47.191 83.819 49.628 83.287 49.233 83.714C48.839 84.142 46.534 86.142 47.364 85.938 48.195 85.734 49.058 85.53 49.034 86.037S48.364 87.285 48.73 87.302C49.092 87.32 49.492 88.312 49.276 88.585 49.06 88.859 50.928 90.53 50.063 90.814S48.291 91.419 48.184 91.941 47.59 93.455 47.329 93.685C47.068 93.916 46.96 94.619 46.686 94.394 46.208 94 47.499 92.679 47.521 92.234 47.541 91.789 47.674 91.552 47.748 91.271S48.313 89.513 47.834 90.058C47.356 90.604 47.265 89.95 47.484 89.596 47.704 89.241 47.986 87.986 47.533 88.583 47.079 89.181 47.054 88.373 47.244 87.847 47.431 87.322 48.68 86.082 48.006 86.456S47.993 85.725 47.065 86.491C46.862 86.481 46.299 86.374 46.612 85.78 46.924 85.187 47.952 84.059 47.161 84.468 46.371 84.875 45.943 84.25 45.943 84.248 45.971 84.366 45.999 84.477 46.02 84.575 46.222 85.476 47.066 88.154 47.147 89.902 47.225 91.65 47.181 92.582 47.001 92.937 46.82 93.294 46.078 93.583 46.414 94.167 46.751 94.75 47.266 95.02 47.632 94.996S48.364 94.837 48.669 94.518 49.067 93.806 49.284 93.492C49.505 93.178 50.529 92.943 50.692 92.099 50.852 91.254 50.657 90.271 50.517 89.779 50.378 89.285 49.606 88.476 49.525 87.621 49.443 86.766 50.12 83.674 49.99 82.978S49.971 81.679 49.971 81.679 49.927 80.907 50.354 80.44C50.783 79.973 50.618 79.154 50.447 78.496S50.091 75.762 49.815 75.587C49.541 75.411 48.896 75.299 48.896 75.299S49.181 71.054 49.158 69.795C49.137 68.536 48.932 66.052 48.932 66.052L51.866 66.597S51.872 71.587 51.881 73.089L51.891 74.591S51.831 74.652 51.761 74.753C51.769 74.752 53.062 74.728 53.532 74.837 54.004 74.947 54.343 75.924 54.529 76.257 54.717 76.591 54.717 77.403 54.251 77.866 53.783 78.331 54.934 78.02 54.704 78.537 54.477 79.054 55.248 79.902 55.047 79.851 54.845 79.801 54.204 79.689 53.862 79.836 53.52 79.982 52.833 80.354 52.385 80.049S52.652 78.195 53.156 77.448C53.662 76.702 52.525 76.607 52.055 76.219 51.59 75.834 51.759 74.766 51.76 74.752 51.656 74.906 51.53 75.153 51.567 75.424 51.627 75.874 51.724 79.773 51.83 80.103S52.692 81.605 52.713 82.864 53 89.612 52.971 90.218C52.943 90.826 52.659 92.475 52.563 92.795S51.025 93.614 51.52 94.246C51.52 94.246 53.616 94.549 54.107 94.491 54.595 94.432 54.848 93.39 55.812 92.747S56.716 91.654 56.761 90.724 56.381 87.581 56.374 86.892 56.995 83.27 56.961 82.294C56.924 81.32 57.074 80.759 57.074 80.759S57.382 81.098 57.457 79.52 57.566 74.697 57.566 74.697L56.72 74.535S56.646 71.814 56.689 70.923C56.732 70.033 57.136 66.685 57.136 66.685S59.252 66.543 60.236 66.347 64.161 65.723 64.187 65.156C64.211 64.593 63.791 59.785 63.445 58.552M48.61 28.228S48.186 27.451 48.309 27.16C48.431 26.868 48.519 26.864 48.568 26.708 48.596 26.614 48.729 26.583 48.814 26.487 48.9 26.391 49.312 25.989 49.424 25.913S49.491 25.593 49.526 25.459 50.773 25.049 50.663 25.162C50.555 25.274 50.638 25.816 50.913 25.722 51.187 25.626 51.252 25.382 51.102 25.152 50.966 24.944 51.065 24.867 51.289 24.799 51.512 24.731 51.866 24.624 52.271 24.615 52.676 24.608 52.91 24.268 52.917 24.646 52.927 25.026 52.462 25.707 52.284 26.023 52.106 26.338 51.986 26.577 51.027 27.449 50.066 28.321 51.032 28.451 51.095 28.833 51.157 29.215 50.511 29.211 50.272 29.66 50.034 30.109 50.911 29.88 51.207 29.868 51.506 29.855 51.185 30.326 51.052 30.33 50.915 30.332 49.839 30.039 49.76 29.992S49.634 29.441 49.403 29.159C49.174 28.877 48.61 28.228 48.61 28.228M46.553 28.252S46.352 28.973 45.776 29.595C45.202 30.216 44.07 31.379 43.964 31.699 43.857 32.018 42.816 31.766 42.843 31.199S43.02 31.735 44.35 30.216 46.553 28.252 46.553 28.252M39.924 18.179S39.933 18.203 39.936 18.25C39.994 18.6 40.073 19.122 39.782 19.44 39.472 19.78 39.375 20.566 39.086 20.593S38.898 20.341 38.918 20.057C38.939 19.775 39.015 19.616 39.528 19.032 39.892 18.618 39.939 18.363 39.936 18.249 39.93 18.225 39.928 18.202 39.924 18.179M38.18 18.049C37.692 17.727 39.692 16.173 39.692 16.173 40.4 16.072 40.542 16.511 40.226 16.876 39.912 17.238 38.667 18.369 38.18 18.049M38.828 5.368S39.115 5.571 39.134 6.356C39.149 7.141 39.29 8.148 39.519 8.457S40.697 9.865 39.997 9.805C39.297 9.744 38.728 8.609 38.726 7.554 38.719 6.499 38.752 5.645 38.828 5.368M39.308 11.854C39.204 11.092 38.84 9.642 38.84 9.642S40.057 10.917 40.161 11.489C40.266 12.062 40.165 13.167 40.075 13.27 39.987 13.375 38.92 13.621 38.92 13.621S39.415 12.617 39.308 11.854M36.549 19.08C36.368 18.936 36.752 17.683 37.153 17.053 37.549 16.423 38.546 15.822 38.546 15.822 38.063 16.257 36.733 19.224 36.549 19.08M37.479 18.326C37.763 18.532 37.944 19.079 38.014 19.772 38.081 20.465 37.791 20.573 37.404 19.905 37.015 19.237 37.479 18.326 37.479 18.326M37.355 20.917C37.786 20.938 38.836 21.637 38.977 22.414 39.117 23.192 38.151 23.226 38.202 23.026S38.464 22.633 38.253 21.974C38.04 21.315 37.355 20.917 37.355 20.917M37.36 25.419C37.599 24.619 36.611 24.815 36.912 24.546 37.209 24.276 37.856 24.185 38.156 23.997 38.156 23.997 39.594 23.051 40.428 22.848S41.493 22.899 41.493 22.899 40.004 23.437 39.218 24.21C38.433 24.984 37.121 26.22 37.36 25.419M41.169 29.699C41.017 30.341 40.139 30.299 39.742 29.956 39.389 29.649 38.268 27.949 38.033 27.588 38.327 28.02 39.71 29.789 40.423 29.177 41.185 28.523 42.441 27.731 42.441 27.731S41.322 29.057 41.169 29.699M42.574 24.938L42.582 24.776C43.874 24.879 44.727 26.583 45.583 27.354 46.437 28.125 45.123 27.615 44.813 27.317 44.502 27.019 42.574 24.938 42.574 24.938M36.418 55.31C35.466 54.854 36.133 53.638 36.537 52.806 36.883 52.094 39.896 45.816 40.764 44.01A5 5 0 0 1 40.996 43.526L40.764 44.01C39.719 46.495 38.36 53.548 38.219 54.143 38.069 54.785 37.371 55.767 36.418 55.31M40.628 58.092C40.507 58.918 39.512 59.358 39.502 59.196 39.496 59.033 39.019 58.604 38.648 57.896A57 57 0 0 1 38.091 56.816C38.21 56.262 38.777 56.889 39.625 56.645 40.475 56.401 40.747 57.266 40.628 58.092M44.425 76.307C44.167 76.578 44.254 70.227 44.154 68.883 43.994 66.279 42.479 62.622 42.662 62.185 42.662 62.185 44.727 63.947 45.846 64.326 46.964 64.703 46.192 66.867 46.541 69.722 46.893 72.579 47.103 75.747 47.103 75.747S44.681 76.035 44.425 76.307M46.998 35.94C47.007 37.442 46.339 47.229 45.567 46.379 44.796 45.531 45.539 41.876 45.539 41.876S45.399 42.234 43.927 45.043C42.454 47.854 42.792 50.142 43.117 50.968 43.443 51.796 42.519 52.442 41.774 51.878 41.03 51.316 42.089 53.8 41.9 54.358 41.712 54.918 39.828 56.125 39.716 55.066 39.605 54.005 41.029 48.799 41.799 45.387 42.571 41.976 44.147 36.169 45.708 32.755 47.272 29.34 43.416 35.323 43.683 34.808 43.954 34.294 44.382 32.082 45.319 31.195 46.252 30.305 47.755 30.296 47.755 30.296 48.261 30.727 46.048 33.745 45.452 36.028S46.809 33.091 47.868 32.168C48.925 31.246 46.988 34.439 46.998 35.94M50.477 54.729C50.331 54.316 50.378 53.507 50.629 51.531 50.881 49.555 50.955 44.69 50.955 44.69 51.833 44.894 51.828 46.923 51.851 48.993S51.129 54.76 50.477 54.729M50.901 33.207C50.083 32.518 51.052 34.309 51.233 34.764S50.902 36.614 51.334 38.583C51.768 40.55 50.359 42.025 49.653 41.545 48.944 41.065 47.956 39.679 47.869 38.701S48.388 36.042 48.322 35.396C48.213 34.295 48.529 32.769 48.839 32.256 49.148 31.742 49.094 33.729 49.261 35.319S49.824 32.831 49.75 31.853C49.674 30.876 50.155 31.021 50.616 31.124S53.984 33.231 54.674 34.076C55.363 34.921 53.686 36.098 53.209 35.873 52.732 35.647 51.72 33.894 50.901 33.207M54.682 73.833C54.078 74.617 52.102 74.359 52.102 74.359S52.323 73.153 52.266 72.623 52.097 67.913 52.108 67.139C52.12 66.451 52.112 66.491 53.337 67.198 54.56 67.906 54.569 69.408 54.474 70.58 54.376 71.751 55.288 73.052 54.682 73.833M55.224 89.682C54.72 90.064 55.423 90.664 55.164 90.937 54.908 91.209 54.304 91.139 54.477 90.904 54.65 90.67 54.567 89.853 53.94 90.229S53.456 90.206 53.456 90.206L53.372 90.041S53.457 89.314 53.424 88.988C53.392 88.661 54.116 88.251 54.427 87.738 54.735 87.224 53.508 88.261 53.553 87.939 53.6 87.617 53.443 86.23 53.645 86.037 53.846 85.844 54.742 85.359 54.981 85.451 55.22 85.545 55.516 86.167 55.658 86.579 55.801 86.992 55.445 87.665 55.685 88.568 55.925 89.472 55.731 89.3 55.224 89.682M56.039 83.798C54.912 83.825 54.14 84.356 54.465 84.371 54.788 84.387 55.63 84.589 54.796 85.036 53.963 85.483 53.321 85.363 53.321 85.363S53.291 85.168 53.613 84.979C53.937 84.792 53.564 84.531 53.206 84.352 52.851 84.172 53.801 83.812 54.308 83.389 54.815 82.968 53.004 83.491 52.902 83.242 52.798 82.994 53.173 82.524 53.004 82.395 52.834 82.265 53.086 81.79 53.417 81.692 53.745 81.595 53.238 81.149 53.095 80.776 52.95 80.405 54.243 80.506 54.768 80.613 55.289 80.719 55.752 82.039 55.157 81.775 54.56 81.512 54.615 82.106 54.911 82.648 55.207 83.189 57.17 83.771 56.039 83.798M60.176 59.856C60.047 60.864 58.254 60.21 58.372 61.149 58.487 62.087 58.661 66.113 56.865 66.351 55.068 66.59 53.11 65.969 53.11 65.969 52.649 64.569 56.201 58.977 56.696 55.43S57.971 49.973 57.794 52.845C57.615 55.717 58.158 60.53 58.571 59.495 58.986 58.46 58.035 46.933 58.76 47.048 59.484 47.165 60.306 58.849 60.176 59.856M44.569 81.471A1.6 1.6 0 0 1 44.437 81.045C44.635 81.125 44.584 81.314 44.569 81.471M44.774 81.718C44.572 81.709 44.559 81.6 44.569 81.471 44.633 81.604 44.709 81.699 44.774 81.718M44.42 80.923C44.424 80.964 44.429 81.004 44.437 81.045 44.337 81.004 44.348 80.964 44.42 80.923" fill="#293040" data-fill-palette-color="quaternary"></path></svg></g></svg></g><g></g></svg></g></svg></g></svg></g></svg></g><defs></defs></svg><rect width="333.90454557049503" height="333.90454557049503" fill="none" stroke="none" visibility="hidden"></rect></g></svg></g></svg>
