<svg xmlns="http://www.w3.org/2000/svg" version="1.1" xmlns:xlink="http://www.w3.org/1999/xlink" xmlns:svgjs="http://svgjs.dev/svgjs" width="1500" height="939" viewBox="0 0 1500 939"><g transform="matrix(1,0,0,1,-0.9090909090909918,-1.5145161290323017)"><svg viewBox="0 0 396 248" data-background-color="#ffffff" preserveAspectRatio="xMidYMid meet" height="939" width="1500" xmlns="http://www.w3.org/2000/svg" xmlns:xlink="http://www.w3.org/1999/xlink"><g id="tight-bounds" transform="matrix(1,0,0,1,0.2400000000000091,0.4000000000000057)"><svg viewBox="0 0 395.52 247.2" height="247.2" width="395.52"><g><svg></svg></g><g><svg viewBox="0 0 395.52 247.2" height="247.2" width="395.52"><mask id="ba822e16-f7d6-45ea-b479-0570181a4bd3"><rect width="640" height="400" fill="white"></rect><g transform="matrix(1,0,0,1,119.94481309420915,37.08)"><svg viewBox="0 0 155.63037381158168 173.04" height="173.04" width="155.63037381158168"><g><svg viewBox="0 0 155.63037381158168 173.04" height="173.04" width="155.63037381158168"><g><svg viewBox="0 0 155.63037381158168 173.04" height="173.04" width="155.63037381158168"><g><svg viewBox="0 0 155.63037381158168 173.04" height="173.04" width="155.63037381158168"><g id="SvgjsG1825"><svg viewBox="0 0 155.63037381158168 173.04" height="173.04" width="155.63037381158168" id="SvgjsSvg1824"><g><svg viewBox="0 0 155.63037381158168 173.04" height="173.04" width="155.63037381158168"><g transform="matrix(1,0,0,1,0,0)"><svg width="155.63037381158168" viewBox="2.98 -36.16 33.519999999999996 37.16" height="173.04" data-palette-color="#001f3f"><path d="M13.67-13.13L13.67 0 3.98 0 3.98-35.16 21.26-35.16Q23.71-35.16 25.98-34.58 28.25-34.01 29.99-32.78 31.74-31.54 32.78-29.59 33.81-27.64 33.81-24.85L33.81-24.85Q33.81-22.68 32.9-20.76 31.98-18.85 30.46-17.35 28.93-15.84 26.95-14.86 24.98-13.87 22.85-13.55L22.85-13.55Q23.8-11.94 24.84-10.5 25.88-9.06 26.94-7.8 28-6.54 29.05-5.48 30.1-4.42 31.05-3.54L31.05-3.54Q33.3-1.49 35.5 0L35.5 0 23.41 0Q21.95-1.39 20.63-3.34L20.63-3.34Q19.51-5 18.37-7.46 17.24-9.91 16.63-13.13L16.63-13.13 13.67-13.13ZM23.97-24.85L23.97-24.85Q23.97-28.39 22.25-30.05 20.53-31.71 17.09-31.71L17.09-31.71 13.67-31.71 13.67-16.46 17.09-16.46Q18.92-16.46 20.23-17.15 21.53-17.85 22.36-19.01 23.19-20.17 23.58-21.68 23.97-23.19 23.97-24.85Z" opacity="1" transform="matrix(1,0,0,1,0,0)" fill="black" class="wordmark-text-0" id="SvgjsPath1823" stroke-width="1" stroke="black" stroke-linejoin="round"></path></svg></g></svg></g></svg></g></svg></g><g></g></svg></g></svg></g></svg></g></mask><g transform="matrix(1,0,0,1,119.94481309420915,37.08)"><svg viewBox="0 0 155.63037381158168 173.04" height="173.04" width="155.63037381158168"><g><svg viewBox="0 0 155.63037381158168 173.04" height="173.04" width="155.63037381158168"><g><svg viewBox="0 0 155.63037381158168 173.04" height="173.04" width="155.63037381158168"><g><svg viewBox="0 0 155.63037381158168 173.04" height="173.04" width="155.63037381158168"><g id="textblocktransform"><svg viewBox="0 0 155.63037381158168 173.04" height="173.04" width="155.63037381158168" id="textblock"><g><svg viewBox="0 0 155.63037381158168 173.04" height="173.04" width="155.63037381158168"><g transform="matrix(1,0,0,1,0,0)"><svg width="155.63037381158168" viewBox="2.98 -36.16 33.519999999999996 37.16" height="173.04" data-palette-color="#001f3f"><path d="M13.67-13.13L13.67 0 3.98 0 3.98-35.16 21.26-35.16Q23.71-35.16 25.98-34.58 28.25-34.01 29.99-32.78 31.74-31.54 32.78-29.59 33.81-27.64 33.81-24.85L33.81-24.85Q33.81-22.68 32.9-20.76 31.98-18.85 30.46-17.35 28.93-15.84 26.95-14.86 24.98-13.87 22.85-13.55L22.85-13.55Q23.8-11.94 24.84-10.5 25.88-9.06 26.94-7.8 28-6.54 29.05-5.48 30.1-4.42 31.05-3.54L31.05-3.54Q33.3-1.49 35.5 0L35.5 0 23.41 0Q21.95-1.39 20.63-3.34L20.63-3.34Q19.51-5 18.37-7.46 17.24-9.91 16.63-13.13L16.63-13.13 13.67-13.13ZM23.97-24.85L23.97-24.85Q23.97-28.39 22.25-30.05 20.53-31.71 17.09-31.71L17.09-31.71 13.67-31.71 13.67-16.46 17.09-16.46Q18.92-16.46 20.23-17.15 21.53-17.85 22.36-19.01 23.19-20.17 23.58-21.68 23.97-23.19 23.97-24.85Z" opacity="1" transform="matrix(1,0,0,1,0,0)" fill="#001f3f" class="wordmark-text-0" data-fill-palette-color="primary" id="text-0"></path></svg></g></svg></g></svg></g></svg></g><g></g></svg></g></svg></g></svg></g><g mask="url(#ba822e16-f7d6-45ea-b479-0570181a4bd3)"><g transform="matrix(2.7214206437291897, 0, 0, 2.7214206437291897, 105.85592739920546, 1)"><svg xmlns="http://www.w3.org/2000/svg" xmlns:xlink="http://www.w3.org/1999/xlink" version="1.1" x="0" y="0" viewBox="16.22937625884345 4.9 67.54124748231311 90.1" enable-background="new 0 0 100 100" xml:space="preserve" height="90.1" width="67.54124748231311" class="icon-none" data-fill-palette-color="accent" id="none"><path d="M63 50.6L83.3 56.9C84.1 57.1 83.8 58.3 83 58.2L62 55.1C61.4 55 61 55.8 61.5 56.2L77 70.7C77.6 71.2 76.9 72.2 76.2 71.7L58.6 59.8C58.1 59.4 57.4 60 57.6 60.6L65.3 80.4C65.6 81.1 64.5 81.6 64.1 81L53.5 62.5C53.2 62 52.3 62.1 52.3 62.8L50.7 94.4C50.6 95.2 49.5 95.2 49.4 94.4L47.8 62.8C47.8 62.2 46.9 62 46.6 62.5L35.8 80.9C35.4 81.6 34.3 81.1 34.6 80.3L42.3 60.5C42.5 59.9 41.9 59.4 41.3 59.7L23.8 71.7C23.1 72.1 22.4 71.2 23 70.7L38.5 56.2C39 55.8 38.6 55 38 55.1L17 58.2C16.2 58.3 16 57.2 16.7 56.9L37 50.6C37.6 50.4 37.6 49.6 37 49.4L16.7 43.1C15.9 42.9 16.2 41.7 17 41.8L38 44.9C38.6 45 39 44.2 38.5 43.8L23 29.3C22.4 28.8 23.1 27.8 23.8 28.3L41.4 40.2C41.9 40.6 42.6 40 42.4 39.4L34.7 19.6C34.4 18.9 35.5 18.4 35.9 19L46.6 37.4C46.9 37.9 47.8 37.8 47.8 37.1L49.4 5.5C49.5 4.7 50.6 4.7 50.7 5.5L52.3 37.1C52.3 37.7 53.2 37.9 53.5 37.4L64.2 19C64.6 18.3 65.7 18.8 65.4 19.6L57.7 39.4C57.5 40 58.1 40.5 58.7 40.2L76.3 28.3C77 27.9 77.7 28.8 77.1 29.3L61.4 43.8C61 44.2 61.3 45 62 44.9L83 41.8C83.8 41.7 84 42.8 83.3 43.1L63 49.4C62.4 49.6 62.4 50.4 63 50.6" fill="#fbd3e9" data-fill-palette-color="accent"></path></svg></g></g></svg></g><defs></defs></svg><rect width="395.52" height="247.2" fill="none" stroke="none" visibility="hidden"></rect></g></svg></g></svg>